<svg xmlns="http://www.w3.org/2000/svg" width="416" height="510" viewBox="0 0 510.174 416.504">
  <path id="Path_1" data-name="Path 1" d="M168.692,321.418c-81.02-7.493-96.916-72.827-97.2-72.267,30.811,4.2,45.657-2.241,46.5-2.8C33.4,225.343,34.8,142.712,34.523,142.712,49.088,154.477,81.58,154.2,81.58,154.2s-20.167-8.963-36.133-41.735C26.68,69.045,39.915,33.682,49.718,15.756,60.642,30.6,83.05,49.648,110.991,72.547c78.639,54.06,155.457,51.679,155.457,51.679s-3.641-8.4-3.081-24.369c2.8-52.379,31.932-80.95,63.3-96.075S396.836.14,396.836.14s32.772,8.683,48.458,29.131c35.013-5.042,64.424-24.929,65.264-24.649-6.162,27.45-22.408,37.814-43.7,56.721,22.688-.28,58.261-15.686,58.261-15.686S504.115,75.068,474.144,100c1.961,42.015-9.243,85.151-9.243,85.151S437.4,333.6,285.8,392,14.949,365.268,14.949,365.268,98.036,379.189,168.692,321.418Z" transform="translate(-14.949 4.035)" fill="#007bff"/>
</svg>
